<svg width="480" height="480" viewBox="0 0 480 480" fill="none" xmlns="http://www.w3.org/2000/svg">
<path d="M472 88.0141H440V48.0141C440.016 43.5961 436.447 40.0011 432.028 39.9861C431.794 39.9851 431.561 39.9951 431.328 40.0141L410.456 41.7741C359.841 45.9601 310.197 58.0651 263.336 77.6461L240 87.3501L216.688 77.6781C169.822 58.0941 120.172 45.9871 69.552 41.7981L48.672 40.0141C44.269 39.6431 40.399 42.9111 40.028 47.3141C40.008 47.5471 39.999 47.7811 40 48.0141V88.0141H8C3.582 88.0141 0 91.5961 0 96.0141V432.014C0 436.432 3.582 440.014 8 440.014H472C476.418 440.014 480 436.432 480 432.014V96.0141C480 91.5961 476.418 88.0141 472 88.0141ZM16 424.03V104.014H40V384.014C39.985 388.18 43.169 391.66 47.32 392.014L68.848 393.854C74.715 394.345 80.581 394.95 86.448 395.67C88.408 395.902 90.352 396.214 92.312 396.47C96.192 396.99 100.072 397.51 103.936 398.126C106.24 398.494 108.536 398.926 110.832 399.334C114.336 399.95 117.84 400.566 121.328 401.254C123.728 401.734 126.128 402.262 128.528 402.782C131.896 403.502 135.264 404.238 138.616 405.038C141.016 405.614 143.456 406.23 145.872 406.846C149.176 407.694 152.472 408.558 155.76 409.47C158.16 410.142 160.56 410.846 162.96 411.55C166.224 412.515 169.48 413.518 172.728 414.558C175.107 415.315 177.48 416.094 179.848 416.894C183.12 417.99 186.368 419.142 189.616 420.318C191.92 421.118 194.232 421.99 196.52 422.862C197.512 423.238 198.496 423.662 199.48 424.03H16ZM232 420.014L217.248 413.854C170.418 394.234 120.798 382.086 70.2 377.854L56 376.67V56.7181L68.208 57.7421C117.174 61.7881 165.201 73.4961 210.536 92.4381L232 101.35V420.014ZM248 420.014V101.35L269.488 92.4301C314.815 73.4921 362.834 61.7871 411.792 57.7421L424 56.7181V376.646L410.856 377.718C360.227 381.921 310.563 393.997 263.656 413.51L248 420.014ZM464 424.014H280.64C281.736 423.59 282.824 423.142 283.92 422.726C286.32 421.806 288.72 420.934 291.176 420.062C294.312 418.926 297.461 417.825 300.624 416.758C303.088 415.958 305.568 415.158 308.04 414.358C311.2 413.35 314.376 412.39 317.552 411.446C320.048 410.71 322.552 409.982 325.056 409.294C328.256 408.398 331.456 407.558 334.736 406.734C337.216 406.102 339.704 405.47 342.2 404.878C345.528 404.078 348.88 403.358 352.232 402.646C354.632 402.126 357.032 401.59 359.48 401.11C363 400.414 366.536 399.798 370.064 399.182C372.352 398.782 374.632 398.382 376.928 397.982C380.872 397.358 384.824 396.822 388.784 396.294C390.68 396.046 392.576 395.742 394.48 395.494C400.347 394.785 406.243 394.179 412.168 393.678L432.656 392.014C436.816 391.672 440.014 388.188 440 384.014V104.014H464V424.014V424.014Z" fill="#1D1D1D"/>
</svg>
