<svg width="488" height="480" viewBox="0 0 488 480" fill="none" xmlns="http://www.w3.org/2000/svg">
<g filter="url(#filter0_d)">
<path d="M460 44.001H188C174.745 44.001 164 54.746 164 68.001V140.001H28C14.745 140.001 4 150.746 4 164.001V356.001C4 369.256 14.745 380.001 28 380.001H60V428.001C60.001 432.419 63.583 436 68.002 435.999C70.123 435.999 72.156 435.156 73.656 433.657L127.312 380.001H300C313.255 380.001 324 369.256 324 356.001V284.001H360.688L414.344 337.657C417.469 340.781 422.534 340.78 425.658 337.655C427.157 336.155 428 334.121 428 332.001V284.001H460C473.255 284.001 484 273.256 484 260.001V68.001C484 54.746 473.255 44.001 460 44.001ZM308 356.001C308 360.419 304.418 364.001 300 364.001H124C121.878 364.001 119.844 364.845 118.344 366.345L76 408.689V372.001C76 367.583 72.418 364.001 68 364.001H28C23.582 364.001 20 360.419 20 356.001V164.001C20 159.583 23.582 156.001 28 156.001H300C304.418 156.001 308 159.583 308 164.001V356.001ZM468 260.001C468 264.419 464.418 268.001 460 268.001H420C415.582 268.001 412 271.583 412 276.001V312.689L369.656 270.345C368.156 268.845 366.122 268.001 364 268.001H324V164.001C324 150.746 313.255 140.001 300 140.001H180V68.001C180 63.583 183.582 60.001 188 60.001H460C464.418 60.001 468 63.583 468 68.001V260.001Z" fill="#1D1D1D"/>
<path d="M68 204.001H52V220.001H68V204.001Z" fill="#1D1D1D"/>
<path d="M276 204.001H84V220.001H276V204.001Z" fill="#1D1D1D"/>
<path d="M276 252.001H52V268.001H276V252.001Z" fill="#1D1D1D"/>
<path d="M276 300.001H52V316.001H276V300.001Z" fill="#1D1D1D"/>
<path d="M436 92.001H244V108.001H436V92.001Z" fill="#1D1D1D"/>
<path d="M436 140.001H340V156.001H436V140.001Z" fill="#1D1D1D"/>
<path d="M436 188.001H340V204.001H436V188.001Z" fill="#1D1D1D"/>
<path d="M228 92.001H212V108.001H228V92.001Z" fill="#1D1D1D"/>
</g>
<defs>
<filter id="filter0_d" x="0" y="0" width="488" height="488" filterUnits="userSpaceOnUse" color-interpolation-filters="sRGB">
<feFlood flood-opacity="0" result="BackgroundImageFix"/>
<feColorMatrix in="SourceAlpha" type="matrix" values="0 0 0 0 0 0 0 0 0 0 0 0 0 0 0 0 0 0 127 0"/>
<feOffset dy="4"/>
<feGaussianBlur stdDeviation="2"/>
<feColorMatrix type="matrix" values="0 0 0 0 0 0 0 0 0 0 0 0 0 0 0 0 0 0 0.25 0"/>
<feBlend mode="normal" in2="BackgroundImageFix" result="effect1_dropShadow"/>
<feBlend mode="normal" in="SourceGraphic" in2="effect1_dropShadow" result="shape"/>
</filter>
</defs>
</svg>
