<svg width="481" height="481" viewBox="0 0 481 481" fill="none" xmlns="http://www.w3.org/2000/svg">
<g clip-path="url(#clip0)">
<path d="M447.326 139.364C412.916 55.167 331.009 0.13698 240.052 0.10498C137.954 0.38398 48.889 69.486 23.252 168.313L12.316 161.353C8.578 158.998 3.638 160.12 1.283 163.858C0.482003 165.13 0.0550028 166.602 0.0520028 168.105V280.105C0.0500028 284.523 3.63 288.106 8.049 288.108C9.572 288.109 11.064 287.675 12.348 286.857L23.276 279.897C41.03 348.38 90.052 404.474 155.54 431.241L136.892 468.529C134.917 472.481 136.52 477.286 140.472 479.261C141.584 479.816 142.809 480.105 144.052 480.105H336.052C340.47 480.129 344.072 476.567 344.096 472.149C344.103 470.893 343.814 469.653 343.252 468.529L324.716 431.457C439.233 384.656 494.128 253.881 447.326 139.364ZM16.052 265.537V182.673L81.148 224.105L16.052 265.537ZM405.548 283.993L260.956 224.105L405.548 164.217C419.551 202.915 419.551 245.296 405.548 283.993ZM254.836 238.889L399.388 298.761C381.849 335.963 351.91 365.902 314.708 383.441V383.409L254.836 238.889ZM240.052 245.009L299.94 389.601C261.262 403.656 218.864 403.605 180.22 389.457L240.052 245.009ZM165.444 383.305C128.29 365.779 98.385 335.88 80.852 298.729L225.268 238.889L165.444 383.305ZM254.836 209.321L314.708 64.769C351.91 82.308 381.849 112.247 399.388 149.449L254.836 209.321ZM240.052 203.201L180.22 58.753C218.864 44.605 261.262 44.554 299.94 58.609L240.052 203.201ZM225.268 209.329L80.852 149.481C98.379 112.326 128.286 82.425 165.444 64.905L225.268 209.329ZM219.148 224.105L74.668 283.953C70.95 273.718 68.199 263.157 66.452 252.409L100.324 230.857C104.053 228.487 105.155 223.543 102.785 219.814C102.155 218.823 101.315 217.983 100.324 217.353L66.452 195.801C68.199 185.053 70.95 174.492 74.668 164.257L219.148 224.105ZM156.996 464.105L170.636 436.825C215.722 451.802 264.431 451.866 309.556 437.009L323.108 464.105H156.996V464.105ZM240.052 432.105C143.289 431.881 59.402 365.099 37.492 270.849L51.892 261.681C72.644 365.67 173.767 433.145 277.755 412.393C381.743 391.64 449.219 290.518 428.466 186.53C407.713 82.541 306.591 15.066 202.603 35.818C126.534 50.999 67.073 110.461 51.892 186.529L37.492 177.353C63.339 65.451 175.007 -4.31102 286.909 21.536C398.811 47.383 468.573 159.051 442.726 270.953C420.932 365.309 336.892 432.132 240.052 432.105Z" fill="#1D1D1D"/>
<path d="M472.524 116.745C453.794 76.37 424.916 41.54 388.708 15.657C385.114 13.086 380.115 13.915 377.544 17.509C374.973 21.103 375.802 26.102 379.396 28.673C413.358 52.936 440.441 85.598 457.996 123.465C459.306 126.295 462.141 128.106 465.26 128.105C466.421 128.108 467.569 127.854 468.62 127.361C472.629 125.507 474.376 120.755 472.524 116.745Z" fill="#1D1D1D"/>
<path d="M457.395 35.142C457.312 35.042 457.227 34.945 457.14 34.849C446.784 22.974 435.475 11.967 423.324 1.93703C419.976 -0.945966 414.924 -0.567967 412.042 2.78003C409.159 6.12803 409.537 11.18 412.885 14.062C412.969 14.134 413.054 14.204 413.14 14.273C424.611 23.755 435.294 34.152 445.084 45.361C447.906 48.761 452.95 49.229 456.349 46.407C459.749 43.585 460.217 38.542 457.395 35.142Z" fill="#1D1D1D"/>
<path d="M478.684 62.817L476.42 59.521C473.854 55.924 468.858 55.089 465.261 57.655C461.713 60.187 460.844 65.093 463.308 68.689L465.42 71.769C467.892 75.432 472.865 76.397 476.528 73.925C480.191 71.453 481.156 66.48 478.684 62.817Z" fill="#1D1D1D"/>
</g>
<defs>
<clipPath id="clip0">
<rect width="480.106" height="480.106" fill="white"/>
</clipPath>
</defs>
</svg>
