<svg width="512" height="512" viewBox="0 0 512 512" fill="none" xmlns="http://www.w3.org/2000/svg">
<g clip-path="url(#clip0)">
<path d="M477.867 60H34.1328C15.2812 60 0 75.2812 0 94.1328V418.398C0 437.25 15.2812 452.535 34.1328 452.535H477.867C496.719 452.535 512 437.25 512 418.398V94.1328C512 75.2812 496.719 60 477.867 60V60ZM136.586 435.465C137.219 421.586 144.48 408.855 156.109 401.246L214.988 367.969C220.324 364.512 222.746 357.957 220.941 351.867C219.137 345.773 213.535 341.594 207.18 341.602H151.27C150.152 341.629 149.109 341.035 148.566 340.055C148.02 339.141 148.02 338 148.566 337.086C160.316 316.82 175.539 275.184 183.039 219.137C193.418 141.672 252.824 145.207 255.324 145.383C255.797 145.426 256.27 145.426 256.742 145.383C259.301 145.152 318.594 141.117 329.027 219.129C336.527 275.184 351.754 316.82 363.484 337.051C364.039 337.977 364.039 339.129 363.484 340.055C362.941 341.035 361.898 341.629 360.781 341.602H304.82C298.367 341.578 292.695 345.875 290.969 352.09C289.242 358.309 291.883 364.914 297.422 368.223L355.449 400.984C367.285 408.578 374.723 421.422 375.414 435.465H136.586ZM494.934 418.398C494.934 427.824 487.293 435.465 477.867 435.465H392.398C391.695 415.461 381.156 397.094 364.238 386.391L315.172 358.668H360.73C367.918 358.684 374.57 354.867 378.184 348.648C381.793 342.434 381.812 334.762 378.23 328.527C367.805 310.539 353.082 270.5 345.914 216.867C333.984 127.805 263.852 128.062 256 128.336C248.133 128.02 178.016 127.812 166.086 216.875C161.957 255.715 151.012 293.523 133.75 328.562C130.188 334.797 130.219 342.457 133.828 348.664C137.441 354.871 144.09 358.684 151.27 358.668H196.805L147.312 386.648C130.617 397.383 120.258 415.629 119.602 435.465H34.1328C24.707 435.465 17.0664 427.824 17.0664 418.398V94.1328C17.0664 84.707 24.707 77.0664 34.1328 77.0664H477.867C487.293 77.0664 494.934 84.707 494.934 94.1328V418.398Z" fill="#1D1D1D"/>
<path d="M93.8672 94.1328H51.1992C41.7734 94.1328 34.1328 101.773 34.1328 111.199V153.867C34.1328 158.578 37.9531 162.398 42.668 162.398C47.3789 162.398 51.1992 158.578 51.1992 153.867V111.199H93.8672C98.5781 111.199 102.398 107.379 102.398 102.668C102.398 97.9531 98.5781 94.1328 93.8672 94.1328Z" fill="#1D1D1D"/>
<path d="M93.8672 401.332H51.1992V358.668C51.1992 353.953 47.3789 350.133 42.668 350.133C37.9531 350.133 34.1328 353.953 34.1328 358.668V401.332C34.1328 410.758 41.7734 418.398 51.1992 418.398H93.8672C98.5781 418.398 102.398 414.578 102.398 409.867C102.398 405.152 98.5781 401.332 93.8672 401.332Z" fill="#1D1D1D"/>
<path d="M469.332 350.133C464.621 350.133 460.801 353.953 460.801 358.668V401.332H418.133C413.422 401.332 409.602 405.152 409.602 409.867C409.602 414.578 413.422 418.398 418.133 418.398H460.801C470.227 418.398 477.867 410.758 477.867 401.332V358.668C477.867 353.953 474.047 350.133 469.332 350.133V350.133Z" fill="#1D1D1D"/>
<path d="M460.801 94.1328H418.133C413.422 94.1328 409.602 97.9531 409.602 102.668C409.602 107.379 413.422 111.199 418.133 111.199H460.801V153.867C460.801 158.578 464.621 162.398 469.332 162.398C474.047 162.398 477.867 158.578 477.867 153.867V111.199C477.867 101.773 470.227 94.1328 460.801 94.1328V94.1328Z" fill="#1D1D1D"/>
</g>
<defs>
<clipPath id="clip0">
<rect width="512" height="512" fill="white"/>
</clipPath>
</defs>
</svg>
