<svg width="454" height="454" viewBox="0 0 454 454" fill="none" xmlns="http://www.w3.org/2000/svg">
<g clip-path="url(#clip0)">
<path d="M453.1 226.5C453.1 212.2 448.9 198.2 441.1 186.3C434.8 176.8 431.8 165.5 432.5 154.1C432.5 153.9 432.6 153.7 432.6 153.6V153.5C433.6 124.6 418.4 97.6 392.5 84.5C392.3 84.4 392 84.3 391.8 84.2C382 79.1 374 71.1 368.9 61.3C368.8 61.1 368.7 60.8 368.6 60.6C355.5 34.8 328.5 19.5 299.6 20.5H299.5C299.3 20.5 299.1 20.6 299 20.6C287.6 21.3 276.3 18.2 266.8 12C242.4 -4 210.8 -4 186.4 12C176.9 18.3 165.6 21.3 154.2 20.6C154 20.6 153.8 20.5 153.7 20.5H153.6C124.7 19.5 97.7 34.8 84.6 60.6C84.5 60.8 84.4 61.1 84.3 61.3C79.2 71.1 71.2 79.1 61.4 84.2C61.2 84.3 60.9 84.4 60.7 84.5C34.8 97.5 19.6 124.6 20.6 153.4V153.5C20.6 153.6 20.7 153.8 20.7 154C20.7 155.1 20.8 156.1 20.8 157C20.8 167.4 17.8 177.6 12 186.3C-4 210.7 -4 242.3 12 266.7C18.3 276.2 21.3 287.5 20.6 298.9C20.6 299.1 20.5 299.3 20.5 299.4V299.5C19.5 328.4 34.7 355.4 60.6 368.5C60.8 368.6 61.1 368.7 61.3 368.8C71.1 373.9 79.1 381.9 84.2 391.7C84.3 391.9 84.4 392.2 84.5 392.4C97.6 418.2 124.6 433.5 153.5 432.5H153.6C153.8 432.5 153.9 432.4 154.1 432.4C155.2 432.4 156.2 432.3 157.1 432.3C167.5 432.3 177.7 435.3 186.4 441.1C210.8 457.1 242.4 457.1 266.8 441.1C276.3 434.8 287.6 431.8 299 432.5C299.2 432.5 299.4 432.6 299.5 432.6H299.6C300.9 432.6 302.2 432.6 303.4 432.6C330.9 432.6 356.1 417.1 368.6 392.5C368.7 392.3 368.8 392.1 368.9 391.9C374 382.1 382 374.1 391.8 369C392 368.9 392.3 368.8 392.5 368.7C418.3 355.6 433.6 328.6 432.6 299.7V299.6C432.6 299.5 432.5 299.3 432.5 299.1C432.5 298 432.4 297 432.4 296.1C432.4 285.7 435.4 275.5 441.2 266.8C449 254.8 453.1 240.8 453.1 226.5ZM424.4 255.7C416.5 267.7 412.4 281.7 412.4 296C412.4 297.3 412.6 298.5 412.6 299.7V299.9C412.6 300.1 412.5 300.3 412.5 300.5C413.7 321.4 402.4 341 383.8 350.6C383.6 350.7 383.4 350.8 383.2 350.9C369.3 358 358 369.3 350.9 383.2C350.8 383.4 350.7 383.6 350.6 383.8C341 402.4 321.4 413.7 300.5 412.6C300.3 412.6 300.1 412.7 299.9 412.7H299.7C284.1 411.7 268.7 415.9 255.7 424.6C237.9 436.2 215 436.2 197.3 424.5C185.3 416.6 171.3 412.5 157 412.5C155.7 412.5 154.5 412.7 153.3 412.7H153.1C152.9 412.7 152.7 412.6 152.5 412.6C131.6 413.7 112 402.5 102.4 383.9C102.3 383.7 102.2 383.5 102.1 383.3C95 369.4 83.7 358.1 69.8 351C69.6 350.9 69.4 350.8 69.2 350.7C50.6 341.1 39.3 321.5 40.4 300.6C40.4 300.4 40.3 300.2 40.3 300V299.8C41.3 284.2 37.1 268.8 28.4 255.8C16.8 238 16.8 215.1 28.5 197.4C36.4 185.4 40.5 171.4 40.5 157.1C40.5 155.8 40.3 154.6 40.3 153.4V153.2C40.3 153 40.4 152.8 40.4 152.6C39.2 131.7 50.5 112.1 69.1 102.5C69.3 102.4 69.5 102.3 69.7 102.2C83.6 95.1 94.9 83.8 102 69.9C102.1 69.7 102.2 69.5 102.3 69.3C111.9 50.7 131.5 39.4 152.4 40.5C152.6 40.5 152.8 40.4 153 40.4H153.2C168.8 41.4 184.2 37.2 197.2 28.5C215 16.9 237.9 16.9 255.6 28.5C268.6 37.2 284 41.4 299.6 40.4H299.8C300 40.4 300.2 40.5 300.4 40.5C321.3 39.3 340.9 50.6 350.5 69.2C350.6 69.4 350.7 69.6 350.8 69.8C357.9 83.7 369.2 95 383.1 102.1C383.3 102.2 383.5 102.3 383.7 102.4C402.3 112 413.6 131.6 412.5 152.5C412.5 152.7 412.6 152.9 412.6 153.1V153.3C411.6 168.9 415.8 184.3 424.5 197.3C436.1 215 436.1 238 424.4 255.7Z" fill="#1D1D1D"/>
<path d="M306.2 94C301.5 91.2 295.3 92.7 292.5 97.4L143.6 345.3C140.8 350 142.3 356.2 147 359C151.7 361.8 157.9 360.3 160.7 355.6L309.6 107.7C312.4 103 310.9 96.8 306.2 94Z" fill="#1D1D1D"/>
<path d="M158.9 98.6001C129.8 98.6001 106 126.7 106 161.3C106 195.9 129.8 224.1 158.9 224.1C188 224.1 211.8 195.9 211.8 161.3C211.8 126.7 188 98.6001 158.9 98.6001ZM158.8 204.1C140.7 204.1 125.9 184.9 125.9 161.3C125.9 137.7 140.7 118.6 158.8 118.6C176.9 118.6 191.7 137.8 191.7 161.3C191.7 184.8 176.9 204.1 158.8 204.1Z" fill="#1D1D1D"/>
<path d="M294.4 228.9C265.2 228.9 241.4 257 241.4 291.6C241.4 326.2 265.2 354.3 294.4 354.3C323.6 354.3 347.3 326.2 347.3 291.6C347.3 257 323.6 228.9 294.4 228.9ZM294.4 334.4C276.2 334.4 261.4 315.2 261.4 291.7C261.4 268.2 276.2 249 294.4 249C312.6 249 327.3 268.2 327.3 291.7C327.3 315.2 312.5 334.4 294.4 334.4Z" fill="#1D1D1D"/>
</g>
<defs>
<clipPath id="clip0">
<rect width="453.1" height="453.1" fill="white"/>
</clipPath>
</defs>
</svg>
