<svg width="512" height="512" viewBox="0 0 512 512" fill="none" xmlns="http://www.w3.org/2000/svg">
<g clip-path="url(#clip0)">
<path d="M256 512C250.112 512 245.333 507.221 245.333 501.333V373.333C245.333 367.445 250.112 362.667 256 362.667C261.888 362.667 266.667 367.445 266.667 373.333V501.333C266.667 507.221 261.888 512 256 512Z" fill="#1D1D1D"/>
<path d="M352 512C349.973 512 347.925 511.424 346.091 510.208L250.091 446.208C245.184 442.944 243.861 436.331 247.125 431.424C250.389 426.517 256.981 425.195 261.909 428.459L357.909 492.459C362.816 495.723 364.139 502.336 360.875 507.243C358.827 510.336 355.435 512 352 512Z" fill="#1D1D1D"/>
<path d="M160 512C156.544 512 153.173 510.336 151.104 507.243C147.84 502.336 149.163 495.723 154.069 492.459L250.069 428.459C254.976 425.173 261.611 426.517 264.853 431.424C268.117 436.331 266.795 442.944 261.888 446.208L165.888 510.208C164.096 511.424 162.048 512 160 512V512Z" fill="#1D1D1D"/>
<path d="M469.333 106.667H42.6667C19.136 106.667 0 87.5306 0 63.9999C0 40.4693 19.136 21.3333 42.6667 21.3333H469.333C492.864 21.3333 512 40.4693 512 63.9999C512 87.5306 492.864 106.667 469.333 106.667ZM42.6667 42.6666C30.912 42.6666 21.3333 52.2453 21.3333 63.9999C21.3333 75.7546 30.912 85.3333 42.6667 85.3333H469.333C481.088 85.3333 490.667 75.7546 490.667 63.9999C490.667 52.2453 481.088 42.6666 469.333 42.6666H42.6667Z" fill="#1D1D1D"/>
<path d="M437.333 384H74.6666C57.024 384 42.6666 369.643 42.6666 352V95.9999C42.6666 90.1119 47.4453 85.3333 53.3333 85.3333H458.667C464.555 85.3333 469.333 90.1119 469.333 95.9999V352C469.333 369.643 454.976 384 437.333 384ZM64 106.667V352C64 357.888 68.7786 362.667 74.6666 362.667H437.333C443.221 362.667 448 357.888 448 352V106.667H64Z" fill="#1D1D1D"/>
<path d="M138.667 320C135.936 320 133.205 318.955 131.115 316.885C126.955 312.725 126.955 305.963 131.115 301.803L216.448 216.469C220.053 212.864 225.685 212.309 229.909 215.125L285.781 252.373L364.992 153.344C368.683 148.779 375.381 147.989 379.989 151.68C384.576 155.371 385.323 162.069 381.653 166.677L296.32 273.344C292.864 277.653 286.699 278.656 282.069 275.563L225.344 237.76L146.197 316.907C144.128 318.955 141.397 320 138.667 320V320Z" fill="#1D1D1D"/>
</g>
<defs>
<clipPath id="clip0">
<rect width="512" height="512" fill="white"/>
</clipPath>
</defs>
</svg>
