<?xml version="1.0"?>
<svg xmlns="http://www.w3.org/2000/svg" xmlns:xlink="http://www.w3.org/1999/xlink" xmlns:svgjs="http://svgjs.com/svgjs" version="1.1" width="512" height="512" x="0" y="0" viewBox="0 0 496.032 496.032" style="enable-background:new 0 0 512 512" xml:space="preserve" class=""><g>
<g xmlns="http://www.w3.org/2000/svg">
	<g>
		<g>
			<path d="M248.032,216.018c4.418,0,8-3.582,8-8s-3.582-8-8-8c-48.601-0.455-87.631-40.223-87.176-88.824     c0.455-48.601,40.223-87.631,88.824-87.176c48.722,2.022,86.991,42.441,86.352,91.2v52.8c0,4.418-3.582,8-8,8h-8     c-4.418,0-8-3.582-8-8v-88c0-4.418-3.582-8-8-8c-3.684,0.031-6.856,2.608-7.64,6.208c-23.077-26.773-63.489-29.769-90.262-6.692     c-26.773,23.077-29.769,63.489-6.692,90.262s63.489,29.769,90.262,6.692c2.254-1.943,4.37-4.041,6.332-6.278v5.808     c0,13.255,10.745,24,24,24h8c13.255,0,24-10.745,24-24v-52.8c0.602-57.465-44.631-104.977-102.056-107.2     c-57.438-0.537-104.435,45.59-104.972,103.028C144.467,168.484,190.594,215.482,248.032,216.018z M248.032,168.018     c-26.51,0-48-21.49-48-48s21.49-48,48-48c26.51,0,48,21.49,48,48C296.006,146.517,274.531,167.992,248.032,168.018z" fill="#ffffff" data-original="#000000" style="" class=""/>
			<path d="M495.928,207.482c-0.017-0.327-0.055-0.653-0.112-0.976c-0.071-0.344-0.17-0.681-0.296-1.008     c-0.122-0.373-0.272-0.737-0.448-1.088c-0.052-0.174-0.113-0.345-0.184-0.512c-0.056-0.104-0.168-0.152-0.232-0.256     c-0.442-0.584-0.943-1.12-1.496-1.6c-0.236-0.22-0.487-0.424-0.752-0.608c-0.104-0.064-0.152-0.176-0.256-0.232l-112.304-67.424     c-3.789-2.275-8.705-1.049-10.98,2.74c-2.275,3.789-1.049,8.705,2.74,10.98l100.872,60.52L348.032,282.69l-95.88-57.528     c-2.535-1.523-5.705-1.523-8.24,0l-95.88,57.528L23.584,208.018l100.872-60.52c3.789-2.275,5.015-7.191,2.74-10.98     c-2.275-3.789-7.191-5.015-10.98-2.74L3.912,201.162c-0.096,0.056-0.152,0.16-0.248,0.232c-0.281,0.186-0.549,0.392-0.8,0.616     c-0.315,0.271-0.609,0.565-0.88,0.88c-0.218,0.238-0.421,0.489-0.608,0.752c-0.064,0.104-0.176,0.152-0.232,0.256     c-0.071,0.167-0.132,0.338-0.184,0.512c-0.176,0.351-0.326,0.715-0.448,1.088c-0.126,0.327-0.225,0.664-0.296,1.008     c-0.057,0.323-0.095,0.649-0.112,0.976c0,0.184-0.104,0.344-0.104,0.536v256c0,13.255,10.745,24,24,24h448.032     c13.255,0,24-10.745,24-24v-256C496.032,207.826,495.936,207.666,495.928,207.482z M16.032,222.146l116.448,69.872L16.032,361.89     V222.146z M480.032,464.018c0,4.418-3.582,8-8,8h-448c-4.418,0-8-3.582-8-8v-83.472l232-139.2l232,139.2V464.018z      M480.032,361.89l-116.448-69.872l116.448-69.872V361.89z" fill="#ffffff" data-original="#000000" style="" class=""/>
			<path d="M56.032,440.018h-8v-24c0-4.418-3.582-8-8-8s-8,3.582-8,8v32c0,4.418,3.582,8,8,8h16c4.418,0,8-3.582,8-8     S60.45,440.018,56.032,440.018z" fill="#ffffff" data-original="#000000" style="" class=""/>
			<path d="M104.032,440.018h-16c-4.418,0-8,3.582-8,8s3.582,8,8,8h16c4.418,0,8-3.582,8-8S108.45,440.018,104.032,440.018z" fill="#ffffff" data-original="#000000" style="" class=""/>
		</g>
	</g>
</g>
<g xmlns="http://www.w3.org/2000/svg">
</g>
<g xmlns="http://www.w3.org/2000/svg">
</g>
<g xmlns="http://www.w3.org/2000/svg">
</g>
<g xmlns="http://www.w3.org/2000/svg">
</g>
<g xmlns="http://www.w3.org/2000/svg">
</g>
<g xmlns="http://www.w3.org/2000/svg">
</g>
<g xmlns="http://www.w3.org/2000/svg">
</g>
<g xmlns="http://www.w3.org/2000/svg">
</g>
<g xmlns="http://www.w3.org/2000/svg">
</g>
<g xmlns="http://www.w3.org/2000/svg">
</g>
<g xmlns="http://www.w3.org/2000/svg">
</g>
<g xmlns="http://www.w3.org/2000/svg">
</g>
<g xmlns="http://www.w3.org/2000/svg">
</g>
<g xmlns="http://www.w3.org/2000/svg">
</g>
<g xmlns="http://www.w3.org/2000/svg">
</g>
</g></svg>
