<svg width="55" height="88" viewBox="0 0 55 88" fill="none" xmlns="http://www.w3.org/2000/svg">
<path d="M27.5003 14.5372C18.8761 14.5372 11.8594 21.5532 11.8594 30.1775C11.8594 38.8017 18.8761 45.8184 27.5003 45.8184C36.1246 45.8184 43.1406 38.8017 43.1406 30.1775C43.1406 21.5532 36.1246 14.5372 27.5003 14.5372V14.5372ZM27.5003 40.7144C21.6906 40.7144 16.9634 35.9872 16.9634 30.1775C16.9634 24.3677 21.6899 19.6405 27.5003 19.6405C33.3101 19.6405 38.0366 24.3677 38.0366 30.1775C38.0366 35.9872 33.3101 40.7144 27.5003 40.7144Z" fill="#47525A"/>
<path d="M27.5003 0.89209C12.3366 0.89209 0 13.2772 0 28.5007C0 34.6388 4.28721 46.3481 12.742 63.3028C18.9432 75.7365 25.2288 86.6176 25.2913 86.726C25.7478 87.5148 26.5892 88 27.5003 88C28.4108 88 29.2528 87.5148 29.7087 86.726C29.7719 86.6176 36.0575 75.7365 42.258 63.3028C50.7128 46.3481 55 34.6388 55 28.5007C55.0007 13.2772 42.6641 0.89209 27.5003 0.89209V0.89209ZM27.5003 80.2842C19.6669 66.2941 5.10398 38.2687 5.10398 28.5007C5.10398 16.0917 15.1511 5.99607 27.5003 5.99607C39.8496 5.99607 49.8967 16.0917 49.8967 28.5007C49.8967 38.2687 35.3337 66.2941 27.5003 80.2842Z" fill="#47525A"/>
</svg>
