<svg width="21" height="22" viewBox="0 0 21 22" fill="none" xmlns="http://www.w3.org/2000/svg">
<path d="M20.8424 21.0865L19.0538 18.1052C18.2278 16.7292 17.7913 15.1531 17.7913 13.549V10.9375C17.7913 7.64062 15.5913 4.8521 12.583 3.95312V2.08335C12.583 0.934375 11.6486 0 10.4996 0C9.35067 0 8.4163 0.934375 8.4163 2.08335V3.95312C5.408 4.8521 3.208 7.64062 3.208 10.9375V13.549C3.208 15.1531 2.77152 16.7281 1.94652 18.1042L0.158 21.0854C0.0611245 21.2469 0.059025 21.4469 0.15175 21.6104C0.244474 21.774 0.416349 21.875 0.603849 21.875H20.3955C20.583 21.875 20.7559 21.774 20.8486 21.6115C20.9413 21.449 20.9382 21.2469 20.8424 21.0865Z" fill="#9FD44C"/>
</svg>
