<svg width="512" height="512" viewBox="0 0 512 512" fill="none" xmlns="http://www.w3.org/2000/svg">
<g clip-path="url(#clip0)">
<path d="M130.238 138.267L85.8803 141.694C73.5374 142.648 62.5445 149.117 55.7186 159.442L4.56196 236.813C-0.614997 244.643 -1.43799 254.442 2.35898 263.026C6.15695 271.61 13.9619 277.592 23.2368 279.029L63.8515 285.319C73.3524 234.899 96.0962 184.603 130.238 138.267V138.267Z" fill="#FD393B"/>
<path d="M226.68 448.147L232.971 488.762C234.408 498.037 240.39 505.842 248.973 509.639C252.544 511.219 256.324 511.999 260.085 511.999C265.368 511.999 270.614 510.46 275.187 507.436L352.56 456.28C362.885 449.453 369.354 438.46 370.306 426.119L373.733 381.761C327.395 415.904 277.101 438.648 226.68 448.147V448.147Z" fill="#FD393B"/>
<path d="M211.405 419.997C212.815 419.997 214.233 419.881 215.648 419.645C236.772 416.113 257.132 410.163 276.554 402.375L109.625 235.446C101.837 254.867 95.8873 275.227 92.3553 296.352C90.9633 304.679 93.7563 313.161 99.7252 319.131L192.868 412.275C197.824 417.23 204.513 419.997 211.405 419.997Z" fill="#FD393B"/>
<path d="M471.175 227.001C512.024 148.028 513.537 64.5725 511.402 25.4328C510.671 12.0219 499.979 1.32999 486.567 0.598995C480.194 0.250998 472.641 0 464.128 0C420.363 0 351.112 6.62895 284.999 40.8257C232.457 68.0025 163.561 127.843 122.913 206.484C123.393 206.859 123.862 207.257 124.304 207.699L304.303 387.698C304.745 388.14 305.142 388.608 305.517 389.088C384.158 348.439 443.998 279.543 471.175 227.001V227.001ZM297.697 108.239C326.937 78.9984 374.518 78.9954 403.761 108.239C417.927 122.404 425.728 141.239 425.728 161.272C425.728 181.305 417.927 200.139 403.761 214.304C389.142 228.923 369.932 236.234 350.729 236.236C331.52 236.237 312.32 228.927 297.697 214.304C283.531 200.139 275.729 181.305 275.729 161.272C275.729 141.239 283.531 122.404 297.697 108.239V108.239Z" fill="#FD393B"/>
<path d="M318.909 193.091C336.454 210.636 365.004 210.637 382.549 193.091C391.048 184.591 395.729 173.291 395.729 161.271C395.729 149.251 391.048 137.951 382.549 129.452C373.777 120.679 362.253 116.293 350.729 116.293C339.206 116.293 327.682 120.679 318.91 129.452C310.411 137.951 305.729 149.251 305.729 161.271C305.729 173.291 310.41 184.592 318.909 193.091Z" fill="#FD393B"/>
<path d="M15.305 421.935C19.144 421.935 22.983 420.471 25.911 417.541L74.884 368.568C80.742 362.71 80.742 353.213 74.884 347.355C69.027 341.497 59.529 341.497 53.671 347.355L4.698 396.328C-1.16 402.186 -1.16 411.683 4.698 417.541C7.627 420.47 11.466 421.935 15.305 421.935Z" fill="#FD393B"/>
<path d="M119.765 392.236C113.908 386.378 104.41 386.378 98.552 392.236L4.397 486.391C-1.461 492.249 -1.461 501.746 4.397 507.604C7.326 510.533 11.165 511.997 15.004 511.997C18.843 511.997 22.682 510.533 25.61 507.603L119.764 413.449C125.623 407.591 125.623 398.094 119.765 392.236V392.236Z" fill="#FD393B"/>
<path d="M143.431 437.117L94.4593 486.09C88.6013 491.948 88.6013 501.445 94.4593 507.303C97.3883 510.232 101.227 511.697 105.065 511.697C108.903 511.697 112.743 510.233 115.671 507.303L164.644 458.33C170.502 452.472 170.502 442.975 164.644 437.117C158.787 431.259 149.289 431.259 143.431 437.117Z" fill="#FD393B"/>
</g>
<defs>
<clipPath id="clip0">
<rect width="512" height="512" fill="white"/>
</clipPath>
</defs>
</svg>
