<svg width="512" height="512" viewBox="0 0 512 512" fill="none" xmlns="http://www.w3.org/2000/svg">
<g clip-path="url(#clip0)">
<path d="M460.928 116.172H350.657V71.7386C350.657 50.5814 333.445 33.3699 312.288 33.3699H199.703C178.546 33.3699 161.334 50.5814 161.334 71.7386V116.172H51.0628C22.9721 116.172 0.117819 139.027 0.117819 167.117C0.117819 192.634 -2.49534 215.549 16.8408 241.319C27.781 255.899 42.815 266.3 60.317 271.395L230.273 320.879C247.099 325.777 264.887 325.779 281.716 320.879L451.672 271.395C469.174 266.299 484.208 255.899 495.148 241.319C514.572 215.433 511.871 192.282 511.871 167.117C511.872 139.027 489.019 116.172 460.928 116.172V116.172ZM193.833 71.7386C193.833 68.5018 196.467 65.8694 199.703 65.8694H312.288C315.524 65.8694 318.158 68.5028 318.158 71.7386V116.172H193.833V71.7386Z" fill="#FD393B"/>
<path d="M460.758 302.599C277.44 355.973 279.813 357.053 255.995 357.053C232.348 357.053 237.958 356.965 51.2334 302.6C31.5458 296.867 14.1099 286.3 0.118835 271.733V427.686C0.118835 455.777 22.9721 478.63 51.0638 478.63H460.928C489.019 478.63 511.873 455.777 511.873 427.686V271.733C497.881 286.299 480.445 296.867 460.758 302.599V302.599Z" fill="#FD393B"/>
</g>
<defs>
<clipPath id="clip0">
<rect width="512" height="512" fill="white"/>
</clipPath>
</defs>
</svg>
